<svg width="37" height="40" viewBox="0 0 37 40" fill="none" xmlns="http://www.w3.org/2000/svg">
<path d="M37 2.73127C37 1.22291 35.7741 0 34.262 0H2.738C1.22592 0 0 1.22291 0 2.73127V37.2685C0 38.7771 1.22592 40 2.738 40H34.2618C35.7741 40 36.9998 38.7771 36.9998 37.2687V2.73127H37ZM14.5813 36.1818H5.65025V28H14.5813V36.1818ZM14.5813 24H5.65025V16H14.5813V24ZM14.5813 12H5.65025V3.81818H14.5813V12ZM24.8434 36.2964L20.0487 31.5135L22.091 29.4762L24.8434 32.222L29.154 27.922L31.1963 29.9593L24.8434 36.2964ZM24.8434 24.1873L20.0487 19.4044L22.091 17.3671L24.8434 20.1127L29.154 15.8127L31.1963 17.85L24.8434 24.1873ZM24.8434 12.078L20.0487 7.29509L22.091 5.25782L24.8434 8.00346L29.154 3.70345L31.1963 5.74073L24.8434 12.078Z" fill="#0060AF"/>
</svg>
