<svg width="34" height="40" viewBox="0 0 34 40" fill="none" xmlns="http://www.w3.org/2000/svg">
<path d="M31.2201 29.2708H2.77959C1.24684 29.2708 0 30.6103 0 32.2412C0 33.8721 1.24684 35.2116 2.77959 35.2116H11.7552C12.0237 37.912 14.2835 40 16.9989 40C19.7181 40 21.975 37.912 22.2432 35.2116H31.2202C32.753 35.2116 34 33.8721 34 32.2412C34 30.6103 32.7526 29.2708 31.2201 29.2708Z" fill="#0060AF"/>
<path d="M31.0139 18.0308C31.0139 11.123 26.6654 5.29153 20.7211 3.53141C20.5816 1.56101 18.9697 0 16.9849 0C15.0001 0 13.3511 1.56101 13.2116 3.53141C7.26724 5.29153 2.86688 11.123 2.86688 18.0308V25.3102H31.0138V18.0308H31.0139Z" fill="#0060AF"/>
</svg>
