<svg width="40" height="40" viewBox="0 0 40 40" fill="none" xmlns="http://www.w3.org/2000/svg">
<path d="M36.0046 4.00149C33.4236 1.42107 29.9925 0 26.3428 0C22.6932 0 19.262 1.42107 16.6812 4.00149C12.0852 8.59692 11.4579 15.6768 14.7922 20.9549L13.1122 22.6346L12.9017 22.4241C12.4246 21.947 11.788 21.6844 11.1096 21.6844C10.4313 21.6844 9.79469 21.947 9.31753 22.4241L0.739818 31.0003C0.262663 31.4774 0 32.1139 0 32.7922C0 33.4704 0.262663 34.1069 0.739818 34.584L5.41703 39.2603C5.89419 39.7374 6.53058 40 7.20914 40C7.88752 40 8.52391 39.7374 9.00106 39.2603L17.5788 30.6841C18.5669 29.6961 18.5669 28.0886 17.5788 27.1003L17.3683 26.8898L19.0459 25.2125C21.2092 26.5845 23.7184 27.3225 26.3426 27.3225C29.9923 27.3225 33.4234 25.9016 36.0043 23.3212C41.3319 17.995 41.3319 9.32809 36.0046 4.00149ZM33.2055 20.5231C31.3725 22.3558 28.9353 23.3652 26.3428 23.3652C23.7504 23.3652 21.3131 22.3558 19.4801 20.5231C15.6961 16.7397 15.6961 10.5836 19.4801 6.80001C21.3133 4.9671 23.7504 3.95769 26.3428 3.95769C28.9353 3.95769 31.3723 4.9671 33.2055 6.80001C36.9896 10.5834 36.9896 16.7395 33.2055 20.5231Z" fill="#0060AF"/>
</svg>
