<svg width="34" height="40" viewBox="0 0 34 40" fill="none" xmlns="http://www.w3.org/2000/svg">
<path d="M31.5255 35.0661H27.4007V2.73128C27.4005 1.2252 26.2009 0 24.69 0C23.2079 0 22.0147 1.17974 21.969 2.64617L18.1225 1.26907C16.7134 0.779031 15.1184 0.931982 13.8275 1.68123L10.6348 3.53921C10.0127 3.90114 9.30381 4.09251 8.58273 4.09251C7.93873 4.09251 7.29614 3.93762 6.72285 3.64476L3.27056 1.88229C2.57936 1.53022 1.72836 1.56405 1.0718 1.96511C0.401816 2.37075 0 3.10907 0 3.89198V16.6335C0 17.4841 0.458208 18.2541 1.21888 18.6432L6.23884 21.2093C6.96292 21.5796 7.77238 21.7752 8.58644 21.7752C9.49826 21.7752 10.3945 21.533 11.1815 21.0752L14.3749 19.2178C14.9983 18.8557 15.7088 18.6643 16.4302 18.6643C16.889 18.6643 17.3117 18.7408 17.74 18.8895L21.9203 20.4026V35.0661H17.9132C16.5485 35.0661 15.4383 36.1727 15.4383 37.533C15.4383 38.8934 16.5485 40 17.9132 40H31.5251C32.8898 40 34 38.8934 34 37.533C34 36.1727 32.89 35.0661 31.5255 35.0661Z" fill="#0060AF"/>
</svg>
