<svg width="40" height="37" viewBox="0 0 40 37" fill="none" xmlns="http://www.w3.org/2000/svg">
<path d="M27.2739 12.7143C25.3659 11.0023 22.7826 10.0593 20.0001 10.0593C17.2178 10.0593 14.6345 11.0022 12.7262 12.7143C10.737 14.4992 9.64134 16.9864 9.64134 19.7176C9.64134 24.4028 12.2706 26.9417 13.1344 27.776C13.3669 28.0006 13.8356 28.5831 14.4035 29.3246C13.9883 29.7138 13.7314 30.2411 13.7314 30.8222C13.7314 31.5023 14.0821 32.109 14.6282 32.506C14.5772 32.6709 14.5479 32.8438 14.5479 33.0233C14.5479 33.6729 14.906 34.2473 15.452 34.5969C15.3668 34.7915 15.3186 35.0376 15.3186 35.2592C15.3186 36.2001 16.1617 37 17.1979 37H22.8022C23.8383 37 24.6814 36.2001 24.6814 35.2592C24.6814 35.0376 24.6331 34.8088 24.548 34.6144C25.094 34.2649 25.4523 33.6817 25.4523 33.0321C25.4523 32.8526 25.4229 32.6753 25.372 32.5104C25.9181 32.1134 26.2686 31.5045 26.2686 30.8244C26.2686 30.2555 26.0218 29.7375 25.6218 29.3509C26.2129 28.587 26.7014 27.9847 26.9409 27.754C29.2408 25.5413 30.3588 22.9125 30.3588 19.7178C30.3588 16.9865 29.2632 14.4992 27.2739 12.7143ZM20.0001 17.6421L23.4417 22.2677H21.6515V28.7025H18.2345V22.2677H16.5583L20.0001 17.6421Z" fill="#0060AF"/>
<path d="M19.9432 7.29589C21.064 7.29589 21.9934 6.39553 21.9934 5.28467V2.01122C21.9934 0.900366 21.064 0 19.9432 0C18.8224 0 17.893 0.900366 17.893 2.01122V5.28484C17.893 6.39553 18.8224 7.29589 19.9432 7.29589Z" fill="#0060AF"/>
<path d="M37.9708 16.8489H34.6682C33.5474 16.8489 32.639 17.7701 32.639 18.8809C32.639 19.9918 33.5474 20.913 34.6682 20.913H37.9708C39.0916 20.913 40 19.9918 40 18.8809C40 17.7701 39.0916 16.8489 37.9708 16.8489Z" fill="#0060AF"/>
<path d="M5.33194 16.8489H2.02921C0.908419 16.8489 0 17.7701 0 18.8809C0 19.9918 0.908419 20.913 2.02921 20.913H5.33194C6.45273 20.913 7.36115 19.9918 7.36115 18.8809C7.36115 17.7701 6.45273 16.8489 5.33194 16.8489Z" fill="#0060AF"/>
<path d="M10.6463 7.32857L7.96836 4.93973C7.13546 4.19668 5.85219 4.26374 5.10266 5.08926C4.35296 5.91495 4.42045 7.18667 5.25352 7.92955L7.93145 10.3182C8.31929 10.6642 8.80451 10.8345 9.28819 10.8345C9.84346 10.8345 10.3965 10.61 10.7972 10.1687C11.5467 9.34318 11.4792 8.07163 10.6463 7.32857Z" fill="#0060AF"/>
<path d="M34.8975 5.08926C34.1475 4.2634 32.8647 4.19668 32.0318 4.93973L29.3541 7.32857C28.521 8.07179 28.4535 9.34335 29.2032 10.1689C29.604 10.6102 30.1569 10.8347 30.7122 10.8347C31.1958 10.8347 31.6812 10.6643 32.0689 10.3184L34.7467 7.92972C35.5797 7.1865 35.6472 5.91478 34.8975 5.08926Z" fill="#0060AF"/>
</svg>
