<svg width="40" height="40" viewBox="0 0 40 40" fill="none" xmlns="http://www.w3.org/2000/svg">
<path d="M37.2973 7.68664H29.5353C29.3976 6.676 28.5312 5.9699 27.4834 5.9699H25.8206C25.589 3.03926 23.1322 0.725098 20.1432 0.725098C17.1543 0.725098 14.6973 3.03926 14.4659 5.9699H12.8031C11.7554 5.9699 10.8889 6.676 10.7512 7.68664H2.817C1.29288 7.68664 0 8.92235 0 10.4466V36.515C0 38.0393 1.29288 39.2748 2.817 39.2748H37.2973C38.8216 39.2748 40 38.0391 40 36.515V10.4466C40 8.92235 38.8216 7.68664 37.2973 7.68664ZM20.143 3.93557C21.5164 3.93557 22.6297 5.04887 22.6297 6.42226C22.6297 7.79566 21.5164 8.90896 20.143 8.90896C18.7696 8.90896 17.6563 7.79566 17.6563 6.42226C17.6563 5.04887 18.7698 3.93557 20.143 3.93557ZM33.8197 16.7854H6.35193V11.8068H10.6438V12.3205C10.6438 13.4636 11.6596 14.3819 12.8027 14.3819H27.4834C28.6266 14.3819 29.5279 13.4636 29.5279 12.3205V11.8068H33.8197V16.7854Z" fill="#0060AF"/>
</svg>
