<svg width="40" height="36" viewBox="0 0 40 36" fill="none" xmlns="http://www.w3.org/2000/svg">
<path d="M37.2914 4.582H34.7967C34.2629 1.97829 31.9526 0 29.1917 0C26.4309 0 24.1206 1.97829 23.5867 4.582H16.615C16.0811 1.97829 13.7708 0 11.01 0C8.24914 0 5.93885 1.97829 5.405 4.582H2.91046C1.37887 4.582 0 5.77709 0 7.31241V33.2003C0 34.7356 1.37887 36 2.91046 36H37.2916C38.8232 36 40 34.7356 40 33.2003V7.31241C39.9998 5.77709 38.823 4.582 37.2914 4.582ZM16.277 29.7511H5.36794V16.3854H16.277V29.7511ZM25.4544 29.7511H20.2597V25.0645H25.4544V29.7511ZM25.4544 21.2457H20.2597V16.3854H25.4544V21.2457ZM34.6319 29.7511H29.4371V25.0645H34.6319V29.7511ZM34.6319 21.2457H29.4371V16.3854H34.6319V21.2457Z" fill="#0060AF"/>
</svg>
