<svg width="40" height="30" viewBox="0 0 40 30" fill="none" xmlns="http://www.w3.org/2000/svg">
<path d="M25.4739 0C24.1642 0 23.0515 1.08906 23.0515 2.42754V3.49734C21.7954 4.79401 18.7858 7.00953 13.7569 8.59433C10.293 9.68595 4.26036 10.3081 3.15989 10.4144C3.10516 10.3354 3.06156 10.2595 2.99373 10.1892C2.66895 9.85285 2.24369 9.66596 1.77034 9.66302C0.822388 9.66302 0.0501008 10.4513 0.0440001 11.4204L3.85281e-05 18.6808C-0.00301186 19.1533 0.175167 19.6193 0.499944 19.9555C0.8249 20.2919 1.25913 20.5022 1.72136 20.5022H1.73248C2.20709 20.5022 2.63845 20.2842 2.95174 19.9654C3.04469 20.8589 3.32479 21.7189 3.78773 22.5144C4.63179 23.9645 5.97809 24.987 7.57829 25.4022C8.07783 25.5321 8.59084 25.5952 9.10294 25.5952C11.617 25.5952 13.776 24.0458 14.7288 21.7323C19.1667 23.2867 21.7953 25.2951 23.0513 26.5043V27.5725C23.0513 28.9111 24.164 30 25.4737 30C26.7834 30 27.896 28.9109 27.896 27.5725V2.42772C27.8962 1.08906 26.7834 0 25.4739 0ZM9.10294 21.8259C8.8966 21.8259 8.68863 21.7991 8.48533 21.7463C7.83919 21.5784 7.29568 21.1634 6.95493 20.578C6.84727 20.3931 6.76688 20.1974 6.70839 19.9966C8.08304 20.1829 9.66655 20.4294 11.1455 20.734C10.6891 21.4027 9.93606 21.8259 9.10294 21.8259Z" fill="#0060AF"/>
<path d="M38.087 8.5516C37.5093 7.6951 36.3618 7.47978 35.5244 8.06998C34.6866 8.66035 34.4756 9.83304 35.0532 10.6894C35.8787 11.9134 36.3149 13.3964 36.3149 14.9779C36.3149 16.5537 35.8588 18.089 35.0306 19.3007C34.4478 20.1534 34.6516 21.3275 35.4858 21.9232C35.8071 22.1527 36.1752 22.2629 36.5394 22.2629C37.1208 22.2629 37.6932 21.9823 38.0515 21.4579C39.3262 19.5929 40 17.3521 40 14.9779C40.0002 12.6292 39.3386 10.4071 38.087 8.5516Z" fill="#0060AF"/>
<path d="M33.4054 10.627C32.8278 9.7705 31.6803 9.55518 30.8427 10.1454C30.0049 10.7358 29.7939 11.9084 30.3715 12.7648C30.7903 13.3858 31.0209 14.1748 31.0209 14.9863C31.0209 15.8069 30.7862 16.6021 30.36 17.2253C29.7771 18.0778 29.9809 19.2521 30.8149 19.8478C31.1363 20.0775 31.5043 20.1877 31.8687 20.1877C32.4501 20.1877 33.0223 19.9071 33.3806 19.3829C34.2477 18.1148 34.706 16.5946 34.706 14.9863C34.706 13.3959 34.2563 11.8883 33.4054 10.627Z" fill="#0060AF"/>
</svg>
