<svg width="32" height="40" viewBox="0 0 32 40" fill="none" xmlns="http://www.w3.org/2000/svg">
<path d="M31.5009 15.7957L28.1715 11.2078C27.5662 10.3752 26.2793 9.71534 25.2416 9.71534H23.9718C25.4998 8.84511 26.5218 7.13752 26.5218 5.24336C26.522 2.34999 24.1382 0 21.208 0C18.278 0 15.8942 2.34808 15.8942 5.24145C15.8942 7.13578 16.9162 8.84511 18.4442 9.71534H17.6718C16.4806 9.71534 14.5361 11.2853 14.5361 11.2853C14.3281 11.4109 14.0581 11.4812 13.7757 11.4812C13.3511 11.4812 12.942 11.3309 12.6811 11.078L10.9546 9.40484C11.2539 9.18433 11.4522 8.8606 11.529 8.48622C12.1287 8.09618 12.5147 7.4247 12.5147 6.68883V6.39521C12.5147 5.65916 12.1285 5.02458 11.5289 4.63454C11.3857 3.93818 10.7799 3.44945 10.0329 3.44945H8.00182C7.59413 3.44945 7.22398 3.57007 6.94759 3.82574C6.55065 3.74794 6.17256 3.64125 5.84648 3.54187C2.67145 2.57538 1.88179 1.65049 1.88126 1.65049C1.56398 1.23261 1.21745 1.01592 0.878144 1.01592C0.73396 1.01592 0 1.07109 0 2.25096V10.8331C0 12.0131 0.734137 12.073 0.878673 12.073C1.21798 12.073 1.55782 11.8612 1.86786 11.4529C1.87544 11.4436 2.6681 10.529 5.84313 9.56062C6.16904 9.46124 6.51205 9.37299 6.90864 9.29519C7.01369 9.39249 7.05036 9.47551 7.22662 9.54095V13.6547C7.22662 14.2159 7.76228 14.5889 8.33056 14.5889H9.70418C10.2427 14.5889 10.6853 14.2204 10.73 13.6998L11.9191 14.9455C12.3492 15.3886 12.9737 15.6532 13.6324 15.6532C14.1301 15.6532 14.5666 15.5158 14.9503 15.2461L15.6873 14.7126V23.6489C15.6873 24.4824 16.2636 25.1906 17.021 25.4466L17.0528 36.6898C17.0556 38.5055 18.5683 40 20.4071 40H22.0181C23.8569 40 25.3542 38.5053 25.3562 36.6896L25.3669 25.4548C25.9037 25.2729 26.333 24.8592 26.5379 24.339C27.4766 24.2412 28.5494 23.6009 29.0713 22.802L31.5806 18.9587C32.1691 18.0569 32.1344 16.6672 31.5009 15.7957ZM26.6156 15.2939L27.7835 16.8102C28.1688 17.3221 28.1656 18.228 27.7923 18.7484L26.6156 20.3695V15.2939Z" fill="#0060AF"/>
</svg>
