<svg width="20" height="20" viewBox="0 0 20 20" fill="none" xmlns="http://www.w3.org/2000/svg">
<path d="M19.5516 15.7833L16.4629 12.6942C15.8477 12.0815 14.8289 12.1001 14.1923 12.737L12.6362 14.2927C12.5379 14.2386 12.4361 14.182 12.3291 14.1219C11.3465 13.5774 10.0016 12.8312 8.58629 11.4149C7.16683 9.99558 6.41987 8.64858 5.87373 7.66529C5.8161 7.56112 5.76088 7.46068 5.70635 7.3653L6.75072 6.32248L7.26417 5.8084C7.90179 5.17061 7.91937 4.1521 7.3056 3.53758L4.21691 0.448201C3.60314 -0.165457 2.58388 -0.146841 1.94626 0.49095L1.07576 1.36645L1.09955 1.39006C0.807658 1.76251 0.563746 2.19207 0.382235 2.6553C0.214915 3.09624 0.110743 3.51701 0.0631095 3.93864C-0.344732 7.31973 1.20033 10.4098 5.39343 14.603C11.1896 20.3987 15.8605 19.9609 16.062 19.9395C16.5009 19.887 16.9215 19.7822 17.3489 19.6162C17.8081 19.4368 18.2374 19.1932 18.6096 18.902L18.6286 18.9188L19.5105 18.0553C20.1468 17.4176 20.1651 16.3988 19.5516 15.7833Z" fill="#059FE3"/>
</svg>
