<svg width="77" height="75" viewBox="0 0 77 75" fill="none" xmlns="http://www.w3.org/2000/svg">
<path d="M40.1304 38.5L39.2984 39.0547C39.4589 39.2954 39.7158 39.4549 40.0027 39.4918C40.2897 39.5288 40.5786 39.4396 40.7948 39.2474L40.1304 38.5ZM31.3478 74.3696V66.2174H29.3478V74.3696H31.3478ZM31.3478 66.2174C31.3478 64.5471 30.5942 63.1285 29.4854 61.9794C28.3859 60.8399 26.9028 59.925 25.3164 59.2116C22.1493 57.7875 18.3409 57.0652 15.6739 57.0652V59.0652C18.0613 59.0652 21.5898 59.7288 24.4961 61.0357C25.9463 61.6878 27.1841 62.4747 28.0462 63.3681C28.899 64.252 29.3478 65.1975 29.3478 66.2174H31.3478ZM15.6739 57.0652C13.0069 57.0652 9.19854 57.7875 6.03147 59.2116C4.44499 59.925 2.96195 60.8399 1.86241 61.9794C0.753624 63.1285 0 64.5471 0 66.2174H2C2 65.1975 2.44882 64.252 3.30165 63.3681C4.16373 62.4747 5.40148 61.6878 6.85169 61.0357C9.75798 59.7288 13.2865 59.0652 15.6739 59.0652V57.0652ZM0 66.2174V74.3696H2V66.2174H0ZM15.6739 54.1739C17.7848 54.1739 19.6752 53.4364 21.0419 52.0938C22.4112 50.7485 23.1957 48.8533 23.1957 46.6522H21.1957C21.1957 48.3641 20.5943 49.7298 19.6402 50.6671C18.6835 51.6071 17.313 52.1739 15.6739 52.1739V54.1739ZM23.1957 46.6522V43.3913H21.1957V46.6522H23.1957ZM23.1957 43.3913C23.1957 41.1902 22.4112 39.295 21.0419 37.9497C19.6752 36.6071 17.7848 35.8696 15.6739 35.8696V37.8696C17.313 37.8696 18.6835 38.4364 19.6402 39.3764C20.5943 40.3137 21.1957 41.6794 21.1957 43.3913H23.1957ZM15.6739 35.8696C13.563 35.8696 11.6726 36.6071 10.306 37.9497C8.93666 39.295 8.15217 41.1902 8.15217 43.3913H10.1522C10.1522 41.6794 10.7536 40.3137 11.7076 39.3764C12.6644 38.4364 14.0348 37.8696 15.6739 37.8696V35.8696ZM8.15217 43.3913V46.6522H10.1522V43.3913H8.15217ZM8.15217 46.6522C8.15217 48.8533 8.93666 50.7485 10.306 52.0938C11.6726 53.4364 13.563 54.1739 15.6739 54.1739V52.1739C14.0348 52.1739 12.6644 51.6071 11.7076 50.6671C10.7536 49.7298 10.1522 48.3641 10.1522 46.6522H8.15217ZM54.14 24.7091L39.4661 37.7526L40.7948 39.2474L55.4687 26.2039L54.14 24.7091ZM40.9625 37.9453L34.4407 28.1627L32.7766 29.2721L39.2984 39.0547L40.9625 37.9453ZM39.1304 10.7826V17.3043H41.1304V10.7826H39.1304ZM66.2174 35.8696H59.6957V37.8696H66.2174V35.8696ZM41.1304 62.9565V56.4348H39.1304V62.9565H41.1304ZM12.0954 32.1408C14.2992 18.7607 25.9506 8.52174 40.1305 8.52174V6.52174C24.9625 6.52174 12.4835 17.4784 10.122 31.8157L12.0954 32.1408ZM40.1305 8.52174C55.7195 8.52174 68.4783 21.2805 68.4783 36.8696H70.4783C70.4783 20.176 56.824 6.52174 40.1305 6.52174V8.52174ZM68.4783 36.8696C68.4783 52.4586 55.7195 65.2174 40.1305 65.2174V67.2174C56.824 67.2174 70.4783 53.5632 70.4783 36.8696H68.4783ZM40.1305 65.2174C38.5583 65.2174 36.9776 65.0602 35.3387 64.8963L35.1397 66.8864C36.7616 67.0485 38.4418 67.2174 40.1305 67.2174V65.2174ZM5.26087 36.8696C5.26087 17.5305 20.7914 2 40.1304 2V0C19.6868 0 3.26087 16.426 3.26087 36.8696H5.26087ZM40.1304 2C59.4695 2 75 17.5305 75 36.8696H77C77 16.426 60.574 0 40.1304 0V2ZM75 36.8696C75 56.2086 59.4695 71.7391 40.1304 71.7391V73.7391C60.574 73.7391 77 57.3132 77 36.8696H75ZM40.1304 71.7391C38.5583 71.7391 36.9776 71.5819 35.3386 71.418L35.1396 73.4081C36.7616 73.5703 38.4417 73.7391 40.1304 73.7391V71.7391Z" fill="#106AB4"/>
</svg>
