<svg width="69" height="74" viewBox="0 0 69 74" fill="none" xmlns="http://www.w3.org/2000/svg">
<path d="M18.9756 17.2222V16.2222C18.4233 16.2222 17.9756 16.6699 17.9756 17.2222H18.9756ZM35.3171 1V0C34.7648 0 34.3171 0.447715 34.3171 1L35.3171 1ZM51.6585 1H52.6585C52.6585 0.447715 52.2108 0 51.6585 0V1ZM68 35.0667H69C69 34.5144 68.5523 34.0667 68 34.0667V35.0667ZM68 72.3778V73.3778C68.5523 73.3778 69 72.9301 69 72.3778H68ZM28.1463 74V67.5111H26.1463V74H28.1463ZM28.1463 67.5111C28.1463 64.3367 27.0241 62.0144 25.2394 60.5025C23.4821 59.0139 21.1891 58.4 18.9756 58.4V60.4C20.8475 60.4 22.6399 60.9216 23.9466 62.0286C25.2259 63.1122 26.1463 64.8456 26.1463 67.5111H28.1463ZM18.9756 58.4H9.17073V60.4H18.9756V58.4ZM9.17073 58.4C6.95727 58.4 4.66425 59.0139 2.90699 60.5025C1.12219 62.0144 0 64.3367 0 67.5111H2C2 64.8456 2.92049 63.1122 4.19972 62.0286C5.50648 60.9216 7.29883 60.4 9.17073 60.4V58.4ZM0 67.5111V74H2V67.5111H0ZM14.0732 55.5333C16.1861 55.5333 18.0794 54.8006 19.4491 53.4648C20.822 52.1258 21.6098 50.238 21.6098 48.0444H19.6098C19.6098 49.7442 19.0084 51.1009 18.0527 52.033C17.0938 52.9682 15.7188 53.5333 14.0732 53.5333V55.5333ZM21.6098 48.0444V44.8H19.6098V48.0444H21.6098ZM21.6098 44.8C21.6098 42.6064 20.822 40.7187 19.4491 39.3797C18.0794 38.0438 16.1861 37.3111 14.0732 37.3111V39.3111C15.7188 39.3111 17.0938 39.8762 18.0527 40.8115C19.0084 41.7436 19.6098 43.1003 19.6098 44.8H21.6098ZM14.0732 37.3111C11.9602 37.3111 10.0669 38.0438 8.69722 39.3797C7.3243 40.7187 6.53659 42.6064 6.53659 44.8H8.53659C8.53659 43.1003 9.1379 41.7436 10.0936 40.8115C11.0526 39.8762 12.4276 39.3111 14.0732 39.3111V37.3111ZM6.53659 44.8V48.0444H8.53659V44.8H6.53659ZM6.53659 48.0444C6.53659 50.238 7.3243 52.1258 8.69722 53.4648C10.0669 54.8006 11.9602 55.5333 14.0732 55.5333V53.5333C12.4276 53.5333 11.0526 52.9682 10.0936 52.033C9.1379 51.1009 8.53659 49.7442 8.53659 48.0444H6.53659ZM35.3171 71.3778H30.4146V73.3778H35.3171V71.3778ZM19.9756 35.0667V17.2222H17.9756V35.0667H19.9756ZM18.9756 18.2222H35.3171V16.2222H18.9756V18.2222ZM35.3171 2H51.6585V0H35.3171V2ZM50.6585 1V72.3778H52.6585V1H50.6585ZM51.6585 71.3778H35.3171V73.3778H51.6585V71.3778ZM36.3171 72.3778V1H34.3171V72.3778H36.3171ZM51.6585 36.0667H68V34.0667H51.6585V36.0667ZM67 35.0667V72.3778H69V35.0667H67ZM68 71.3778H51.6585V73.3778H68V71.3778Z" fill="#106AB4"/>
</svg>
