<svg width="77" height="73" viewBox="0 0 77 73" fill="none" xmlns="http://www.w3.org/2000/svg">
<path d="M39.2688 34.9978L40.1929 34.6158C40.0391 34.2436 39.6771 34.0001 39.2744 33.9978C38.8718 33.9955 38.507 34.235 38.349 34.6053L39.2688 34.9978ZM44.5649 47.811L43.6407 48.193C43.785 48.542 44.1135 48.7799 44.4901 48.8082L44.5649 47.811ZM58.2323 48.836L58.908 49.5732C59.202 49.3037 59.3078 48.8854 59.1772 48.5086C59.0467 48.1319 58.7047 47.8686 58.3071 47.8388L58.2323 48.836ZM47.9817 58.2324L47.306 57.4952C47.0415 57.7377 46.9272 58.1034 47.0065 58.4534L47.9817 58.2324ZM50.8861 71.0456L50.3983 71.9185C50.7429 72.1112 51.1687 72.0829 51.4849 71.8465C51.8011 71.61 51.9486 71.2096 51.8613 70.8245L50.8861 71.0456ZM39.2688 64.5536L39.7566 63.6806C39.4554 63.5123 39.0886 63.5111 38.7864 63.6776L39.2688 64.5536ZM27.4806 71.0456L26.5082 70.8122C26.4158 71.1973 26.5593 71.6007 26.8743 71.8408C27.1892 72.0809 27.6161 72.1126 27.963 71.9215L27.4806 71.0456ZM30.5558 58.2324L31.5282 58.4658C31.613 58.1124 31.4994 57.7408 31.2315 57.4952L30.5558 58.2324ZM20.3052 48.836L20.2295 47.8389C19.8321 47.8691 19.4905 48.1324 19.3602 48.5091C19.2299 48.8858 19.3357 49.3039 19.6295 49.5732L20.3052 48.836ZM33.8018 47.811L33.8775 48.8081C34.2497 48.7798 34.5751 48.5467 34.7216 48.2034L33.8018 47.811ZM55.8406 41.6606L55.9172 42.6576C56.2912 42.6288 56.6177 42.3932 56.7627 42.0473L55.8406 41.6606ZM60.2825 31.0683L61.2047 30.6816C61.0489 30.31 60.6853 30.0683 60.2825 30.0683C59.8796 30.0683 59.5161 30.31 59.3603 30.6816L60.2825 31.0683ZM64.7244 41.6606L63.8022 42.0473C63.9474 42.3936 64.2744 42.6293 64.6488 42.6577L64.7244 41.6606ZM76 42.5148L76.669 43.2581C76.9665 42.9903 77.0757 42.5709 76.9465 42.1921C76.8173 41.8132 76.4747 41.5479 76.0755 41.5176L76 42.5148ZM67.4579 50.2027L66.7889 49.4594C66.5168 49.7043 66.4003 50.0782 66.4851 50.4343L67.4579 50.2027ZM70.0205 60.9658L69.531 61.8378C69.8773 62.0322 70.3059 62.0032 70.6229 61.764C70.9399 61.5247 71.0853 61.1205 70.9933 60.7342L70.0205 60.9658ZM60.2825 55.4988L60.772 54.6268C60.4677 54.456 60.0964 54.4562 59.7922 54.6272L60.2825 55.4988ZM21.1595 41.6606L20.2373 42.0473C20.3827 42.3941 20.7105 42.63 21.0856 42.6578L21.1595 41.6606ZM16.7175 31.0683L17.6397 30.6816C17.4839 30.31 17.1204 30.0683 16.7175 30.0683C16.3147 30.0683 15.9511 30.31 15.7953 30.6816L16.7175 31.0683ZM12.2756 41.6606L12.3512 42.6577C12.7256 42.6293 13.0526 42.3936 13.1978 42.0473L12.2756 41.6606ZM1 42.5148L0.924459 41.5176C0.525328 41.5479 0.182681 41.8132 0.0535052 42.1921C-0.075671 42.5709 0.0335137 42.9903 0.331035 43.2581L1 42.5148ZM9.54214 50.2027L10.5183 50.4196C10.5966 50.0676 10.4792 49.7007 10.2111 49.4594L9.54214 50.2027ZM7.15034 60.9658L6.17415 60.7489C6.08829 61.1352 6.23841 61.5359 6.55703 61.7708C6.87566 62.0056 7.30281 62.0304 7.64648 61.834L7.15034 60.9658ZM16.7175 55.4988L17.2078 54.6272C16.9013 54.4548 16.5267 54.4561 16.2214 54.6306L16.7175 55.4988ZM38.3446 35.3797L43.6407 48.193L45.4891 47.429L40.1929 34.6158L38.3446 35.3797ZM44.4901 48.8082L58.1575 49.8332L58.3071 47.8388L44.6397 46.8138L44.4901 48.8082ZM57.5566 48.0989L47.306 57.4952L48.6575 58.9695L58.908 49.5732L57.5566 48.0989ZM47.0065 58.4534L49.9108 71.2667L51.8613 70.8245L48.957 58.0113L47.0065 58.4534ZM51.3739 70.1727L39.7566 63.6806L38.7809 65.4265L50.3983 71.9185L51.3739 70.1727ZM38.7864 63.6776L26.9982 70.1696L27.963 71.9215L39.7512 65.4295L38.7864 63.6776ZM28.453 71.279L31.5282 58.4658L29.5834 57.999L26.5082 70.8122L28.453 71.279ZM31.2315 57.4952L20.9809 48.0989L19.6295 49.5732L29.8801 58.9695L31.2315 57.4952ZM20.3809 49.8332L33.8775 48.8081L33.7261 46.8138L20.2295 47.8389L20.3809 49.8332ZM34.7216 48.2034L40.1885 35.3902L38.349 34.6053L32.882 47.4185L34.7216 48.2034ZM51.4753 42.9993L55.9172 42.6576L55.7639 40.6635L51.3219 41.0052L51.4753 42.9993ZM56.7627 42.0473L61.2047 31.455L59.3603 30.6816L54.9184 41.2738L56.7627 42.0473ZM59.3603 31.455L63.8022 42.0473L65.6466 41.2738L61.2047 30.6816L59.3603 31.455ZM64.6488 42.6577L75.9245 43.5119L76.0755 41.5176L64.7999 40.6634L64.6488 42.6577ZM75.331 41.7715L66.7889 49.4594L68.1268 50.946L76.669 43.2581L75.331 41.7715ZM66.4851 50.4343L69.0477 61.1974L70.9933 60.7342L68.4307 49.9711L66.4851 50.4343ZM70.51 60.0938L60.772 54.6268L59.7929 56.3708L69.531 61.8378L70.51 60.0938ZM59.7922 54.6272L54.3252 57.7024L55.3057 59.4456L60.7727 56.3704L59.7922 54.6272ZM25.8461 41.005L21.2333 40.6633L21.0856 42.6578L25.6983 42.9995L25.8461 41.005ZM22.0816 41.2738L17.6397 30.6816L15.7953 31.455L20.2373 42.0473L22.0816 41.2738ZM15.7953 30.6816L11.3534 41.2738L13.1978 42.0473L17.6397 31.455L15.7953 30.6816ZM12.2001 40.6634L0.924459 41.5176L1.07554 43.5119L12.3512 42.6577L12.2001 40.6634ZM0.331035 43.2581L8.87318 50.946L10.2111 49.4594L1.66896 41.7715L0.331035 43.2581ZM8.56595 49.9858L6.17415 60.7489L8.12653 61.1827L10.5183 50.4196L8.56595 49.9858ZM7.64648 61.834L17.2137 56.3671L16.2214 54.6306L6.6542 60.0975L7.64648 61.834ZM16.2273 56.3704L21.6942 59.4456L22.6748 57.7024L17.2078 54.6272L16.2273 56.3704ZM52.0569 36.877V27.4806H50.0569V36.877H52.0569ZM52.0569 27.4806C52.0569 26.4247 51.3943 25.4835 50.6265 24.7447C49.8253 23.9737 48.7351 23.2533 47.514 22.6371C45.0769 21.4074 41.9333 20.5011 39.0979 20.5011V22.5011C41.5587 22.5011 44.3946 23.3033 46.613 24.4227C47.7196 24.981 48.6261 25.5953 49.2397 26.1858C49.8867 26.8084 50.0569 27.2552 50.0569 27.4806H52.0569ZM39.0979 20.5011C36.2626 20.5011 33.1189 21.4074 30.6819 22.6371C29.4607 23.2533 28.3705 23.9737 27.5694 24.7447C26.8016 25.4835 26.1389 26.4247 26.1389 27.4806H28.1389C28.1389 27.2552 28.3092 26.8084 28.9561 26.1858C29.5698 25.5953 30.4763 24.981 31.5829 24.4227C33.8013 23.3033 36.6372 22.5011 39.0979 22.5011V20.5011ZM26.1389 27.4806V36.877H28.1389V27.4806H26.1389ZM39.0979 0C37.0733 0 35.1461 0.720227 33.7126 1.8622C32.2857 2.99892 31.2642 4.62962 31.2642 6.46697H33.2642C33.2642 5.4 33.8658 4.2972 34.9588 3.42652C36.0451 2.56109 37.5348 2 39.0979 2V0ZM31.2642 6.46697V10.738H33.2642V6.46697H31.2642ZM31.2642 10.738C31.2642 12.651 32.2762 14.2871 33.7208 15.4133C35.1635 16.5382 37.0904 17.205 39.0979 17.205V15.205C37.5178 15.205 36.0278 14.676 34.9506 13.8361C33.8752 12.9977 33.2642 11.9003 33.2642 10.738H31.2642ZM39.0979 17.205C41.1225 17.205 43.0497 16.4848 44.4832 15.3428C45.9102 14.2061 46.9316 12.5754 46.9316 10.738H44.9316C44.9316 11.805 44.3301 12.9078 43.2371 13.7785C42.1507 14.6439 40.661 15.205 39.0979 15.205V17.205ZM46.9316 10.738V6.46697H44.9316V10.738H46.9316ZM46.9316 6.46697C46.9316 4.62962 45.9102 2.99892 44.4832 1.8622C43.0497 0.720227 41.1225 0 39.0979 0V2C40.661 2 42.1507 2.56109 43.2371 3.42652C44.3301 4.2972 44.9316 5.4 44.9316 6.46697H46.9316Z" fill="#106AB4"/>
</svg>
