<svg width="74" height="74" viewBox="0 0 74 74" fill="none" xmlns="http://www.w3.org/2000/svg">
<path d="M73.6287 34.4721H70.0782V18.14C70.0782 14.2245 66.8928 11.0391 62.9774 11.0391H58.1687L53.2478 2.19143C52.4978 0.839269 51.0705 0 49.5225 0C48.801 0 48.0853 0.186062 47.4533 0.536752L28.5678 11.0389H7.47245C3.55696 11.0389 0.371582 14.2243 0.371582 18.1398V66.8989C0.371582 70.8144 3.55696 73.9998 7.47245 73.9998H62.9774C66.8928 73.9998 70.0782 70.8144 70.0782 66.8989V52.5792H73.6287V34.4721ZM62.9774 12.8793C65.1644 12.8793 67.951 15.5408 68.1909 17.6669H61.8539L59.7491 12.8793H62.9774ZM46.8351 3.0192C47.5011 2.64575 50.6175 1.5 51.7651 3.57032C52.1328 4.23369 59.6045 17.6655 59.6045 17.6655H20.4951L46.8351 3.0192ZM68.2378 66.8989C68.2378 69.2479 65.3261 72.1596 62.9771 72.1596C60.6282 72.1596 9.82143 72.1596 7.47245 72.1596C5.12346 72.1596 2.21179 69.2479 2.21179 66.8989C2.21179 64.5499 2.21179 18.14 2.21179 18.14C2.21179 15.791 5.12346 12.8793 7.47245 12.8793H25.4608L16.6496 17.6671H8.36011C7.57476 17.6671 6.93989 17.6655 6.93989 19.0873C6.93989 19.5075 8.36011 19.5075 8.36011 19.5075H11.5413H63.4332H68.2378V34.4735H56.8521C52.0291 34.4735 48.1039 38.3989 48.1039 43.2217V43.8325C48.1039 48.6555 52.0293 52.5807 56.8521 52.5807H68.2378C68.2378 52.5807 68.2378 64.5499 68.2378 66.8989ZM71.7882 50.739H70.0782H56.8521C53.5942 50.739 49.9441 47.089 49.9441 43.8309V43.2202C49.9441 39.9623 53.594 36.3121 56.8521 36.3121C60.1102 36.3121 64.9131 36.3121 70.0782 36.3121C70.3555 36.3121 71.7882 36.3121 71.7882 36.3121V50.739ZM61.202 43.6422C61.202 45.3749 59.7988 46.7779 58.0664 46.7779C56.3337 46.7779 54.9307 45.3747 54.9307 43.6422C54.9307 41.9098 56.3339 40.5066 58.0664 40.5066C59.799 40.5063 61.202 41.9109 61.202 43.6422Z" fill="#106AB4"/>
</svg>
